<?xml version='1.0' encoding='ASCII' standalone='yes'?>
<svg xmlns="http://www.w3.org/2000/svg" xmlns:xlink="http://www.w3.org/1999/xlink" version="1.1" width="630" height="250">
  <g>
    <g transform="translate(5, 0) scale(1 1) translate(0, 0) scale(0.3 0.3) "><!-- END OF HEADER -->
<rect style="opacity:1.0;fill:#FFFFFF;stroke:none" width="400.0" height="400.0" x="0.0" y="0.0"> </rect>
<path class="bond-2 atom-2 atom-3" d="M 112.9,184.1 L 146.6,228.0 L 134.3,237.4 L 100.6,193.5 Z" style="fill:#CCA300;fill-rule:evenodd;fill-opacity:1;stroke:#CCA300;stroke-width:2.0px;stroke-linecap:butt;stroke-linejoin:miter;stroke-opacity:1;"/>
<path class="bond-3 atom-3 atom-4" d="M 139.4,225.0 L 194.3,217.8 L 196.3,233.1 L 141.5,240.4 Z" style="fill:#CCA300;fill-rule:evenodd;fill-opacity:1;stroke:#CCA300;stroke-width:2.0px;stroke-linecap:butt;stroke-linejoin:miter;stroke-opacity:1;"/>
<ellipse cx="106.7" cy="188.8" rx="14.8" ry="14.8" class="atom-2" style="fill:#CCA300;fill-rule:evenodd;stroke:#CCA300;stroke-width:1.0px;stroke-linecap:butt;stroke-linejoin:miter;stroke-opacity:1"/>
<path class="bond-0 atom-0 atom-1" d="M 18.2,152.1 L 44.5,186.3" style="fill:none;fill-rule:evenodd;stroke:#000000;stroke-width:2.0px;stroke-linecap:butt;stroke-linejoin:miter;stroke-opacity:1"/>
<path class="bond-1 atom-1 atom-2" d="M 59.7,195.0 L 106.7,188.8" style="fill:none;fill-rule:evenodd;stroke:#000000;stroke-width:2.0px;stroke-linecap:butt;stroke-linejoin:miter;stroke-opacity:1"/>
<path class="bond-2 atom-2 atom-3" d="M 106.7,188.8 L 140.4,232.7" style="fill:none;fill-rule:evenodd;stroke:#000000;stroke-width:2.0px;stroke-linecap:butt;stroke-linejoin:miter;stroke-opacity:1"/>
<path class="bond-3 atom-3 atom-4" d="M 140.4,232.7 L 195.3,225.4" style="fill:none;fill-rule:evenodd;stroke:#000000;stroke-width:2.0px;stroke-linecap:butt;stroke-linejoin:miter;stroke-opacity:1"/>
<path class="bond-4 atom-4 atom-5" d="M 195.3,225.4 L 216.5,174.3" style="fill:none;fill-rule:evenodd;stroke:#000000;stroke-width:2.0px;stroke-linecap:butt;stroke-linejoin:miter;stroke-opacity:1"/>
<path class="bond-4 atom-4 atom-5" d="M 204.8,224.2 L 222.3,181.9" style="fill:none;fill-rule:evenodd;stroke:#000000;stroke-width:2.0px;stroke-linecap:butt;stroke-linejoin:miter;stroke-opacity:1"/>
<path class="bond-5 atom-5 atom-6" d="M 216.5,174.3 L 271.4,167.1" style="fill:none;fill-rule:evenodd;stroke:#000000;stroke-width:2.0px;stroke-linecap:butt;stroke-linejoin:miter;stroke-opacity:1"/>
<path class="bond-6 atom-6 atom-7" d="M 271.4,167.1 L 305.1,211.0" style="fill:none;fill-rule:evenodd;stroke:#000000;stroke-width:2.0px;stroke-linecap:butt;stroke-linejoin:miter;stroke-opacity:1"/>
<path class="bond-6 atom-6 atom-7" d="M 267.7,175.9 L 295.5,212.2" style="fill:none;fill-rule:evenodd;stroke:#000000;stroke-width:2.0px;stroke-linecap:butt;stroke-linejoin:miter;stroke-opacity:1"/>
<path class="bond-7 atom-7 atom-8" d="M 305.1,211.0 L 283.9,262.1" style="fill:none;fill-rule:evenodd;stroke:#000000;stroke-width:2.0px;stroke-linecap:butt;stroke-linejoin:miter;stroke-opacity:1"/>
<path class="bond-8 atom-8 atom-9" d="M 283.9,262.1 L 229.0,269.3" style="fill:none;fill-rule:evenodd;stroke:#000000;stroke-width:2.0px;stroke-linecap:butt;stroke-linejoin:miter;stroke-opacity:1"/>
<path class="bond-8 atom-8 atom-9" d="M 278.0,254.5 L 232.7,260.5" style="fill:none;fill-rule:evenodd;stroke:#000000;stroke-width:2.0px;stroke-linecap:butt;stroke-linejoin:miter;stroke-opacity:1"/>
<path class="bond-9 atom-7 atom-10" d="M 305.1,211.0 L 350.9,204.9" style="fill:none;fill-rule:evenodd;stroke:#000000;stroke-width:2.0px;stroke-linecap:butt;stroke-linejoin:miter;stroke-opacity:1"/>
<path class="bond-10 atom-6 atom-11" d="M 271.4,167.1 L 288.4,125.9" style="fill:none;fill-rule:evenodd;stroke:#000000;stroke-width:2.0px;stroke-linecap:butt;stroke-linejoin:miter;stroke-opacity:1"/>
<path class="bond-11 atom-3 atom-12" d="M 140.4,232.7 L 127.9,273.8 L 120.2,270.6 Z" style="fill:#000000;fill-rule:evenodd;fill-opacity:1;stroke:#000000;stroke-width:0.5px;stroke-linecap:butt;stroke-linejoin:miter;stroke-opacity:1;"/>
<path class="bond-12 atom-9 atom-4" d="M 229.0,269.3 L 195.3,225.4" style="fill:none;fill-rule:evenodd;stroke:#000000;stroke-width:2.0px;stroke-linecap:butt;stroke-linejoin:miter;stroke-opacity:1"/>
<path d="M 104.4,189.1 L 106.7,188.8 L 108.4,191.0" style="fill:none;stroke:#000000;stroke-width:2.0px;stroke-linecap:butt;stroke-linejoin:miter;stroke-opacity:1;"/>
<path d="M 138.8,230.5 L 140.4,232.7 L 143.2,232.3" style="fill:none;stroke:#000000;stroke-width:2.0px;stroke-linecap:butt;stroke-linejoin:miter;stroke-opacity:1;"/>
<path d="M 215.4,176.9 L 216.5,174.3 L 219.2,173.9" style="fill:none;stroke:#000000;stroke-width:2.0px;stroke-linecap:butt;stroke-linejoin:miter;stroke-opacity:1;"/>
<path d="M 284.9,259.6 L 283.9,262.1 L 281.1,262.5" style="fill:none;stroke:#000000;stroke-width:2.0px;stroke-linecap:butt;stroke-linejoin:miter;stroke-opacity:1;"/>
<path d="M 231.8,269.0 L 229.0,269.3 L 227.3,267.2" style="fill:none;stroke:#000000;stroke-width:2.0px;stroke-linecap:butt;stroke-linejoin:miter;stroke-opacity:1;"/>
<path class="atom-1" d="M 30.6 188.2 L 32.7 188.2 L 32.7 194.8 L 40.7 194.8 L 40.7 188.2 L 42.8 188.2 L 42.8 203.8 L 40.7 203.8 L 40.7 196.6 L 32.7 196.6 L 32.7 203.8 L 30.6 203.8 L 30.6 188.2 " fill="#000000"/>
<path class="atom-1" d="M 48.4 188.2 L 53.6 196.5 Q 54.1 197.3, 54.9 198.8 Q 55.7 200.3, 55.7 200.4 L 55.7 188.2 L 57.8 188.2 L 57.8 203.8 L 55.7 203.8 L 50.2 194.8 Q 49.5 193.7, 48.8 192.5 Q 48.2 191.3, 48.0 190.9 L 48.0 203.8 L 45.9 203.8 L 45.9 188.2 L 48.4 188.2 " fill="#000000"/>
<path class="atom-10" d="M 352.7 203.8 Q 352.7 200.0, 354.6 197.9 Q 356.4 195.8, 359.9 195.8 Q 363.4 195.8, 365.3 197.9 Q 367.1 200.0, 367.1 203.8 Q 367.1 207.6, 365.2 209.8 Q 363.4 211.9, 359.9 211.9 Q 356.5 211.9, 354.6 209.8 Q 352.7 207.6, 352.7 203.8 M 359.9 210.1 Q 362.3 210.1, 363.6 208.5 Q 364.9 206.9, 364.9 203.8 Q 364.9 200.7, 363.6 199.2 Q 362.3 197.6, 359.9 197.6 Q 357.5 197.6, 356.2 199.1 Q 354.9 200.7, 354.9 203.8 Q 354.9 207.0, 356.2 208.5 Q 357.5 210.1, 359.9 210.1 " fill="#000000"/>
<path class="atom-10" d="M 369.6 196.0 L 371.7 196.0 L 371.7 202.7 L 379.7 202.7 L 379.7 196.0 L 381.8 196.0 L 381.8 211.7 L 379.7 211.7 L 379.7 204.4 L 371.7 204.4 L 371.7 211.7 L 369.6 211.7 L 369.6 196.0 " fill="#000000"/>
<path class="atom-11" d="M 285.3 116.0 Q 285.3 112.2, 287.2 110.1 Q 289.0 108.0, 292.5 108.0 Q 296.0 108.0, 297.9 110.1 Q 299.7 112.2, 299.7 116.0 Q 299.7 119.8, 297.8 122.0 Q 296.0 124.1, 292.5 124.1 Q 289.1 124.1, 287.2 122.0 Q 285.3 119.8, 285.3 116.0 M 292.5 122.3 Q 294.9 122.3, 296.2 120.7 Q 297.5 119.1, 297.5 116.0 Q 297.5 112.9, 296.2 111.4 Q 294.9 109.8, 292.5 109.8 Q 290.1 109.8, 288.8 111.3 Q 287.5 112.9, 287.5 116.0 Q 287.5 119.2, 288.8 120.7 Q 290.1 122.3, 292.5 122.3 " fill="#000000"/>
<path class="atom-11" d="M 302.2 108.2 L 304.3 108.2 L 304.3 114.9 L 312.3 114.9 L 312.3 108.2 L 314.4 108.2 L 314.4 123.9 L 312.3 123.9 L 312.3 116.6 L 304.3 116.6 L 304.3 123.9 L 302.2 123.9 L 302.2 108.2 " fill="#000000"/>
<path class="atom-12" d="M 96.6 276.1 L 98.7 276.1 L 98.7 282.7 L 106.7 282.7 L 106.7 276.1 L 108.9 276.1 L 108.9 291.7 L 106.7 291.7 L 106.7 284.5 L 98.7 284.5 L 98.7 291.7 L 96.6 291.7 L 96.6 276.1 " fill="#000000"/>
<path class="atom-12" d="M 112.1 283.9 Q 112.1 280.1, 113.9 278.0 Q 115.8 275.9, 119.3 275.9 Q 122.8 275.9, 124.6 278.0 Q 126.5 280.1, 126.5 283.9 Q 126.5 287.7, 124.6 289.8 Q 122.7 292.0, 119.3 292.0 Q 115.8 292.0, 113.9 289.8 Q 112.1 287.7, 112.1 283.9 M 119.3 290.2 Q 121.7 290.2, 123.0 288.6 Q 124.3 287.0, 124.3 283.9 Q 124.3 280.8, 123.0 279.2 Q 121.7 277.7, 119.3 277.7 Q 116.9 277.7, 115.6 279.2 Q 114.3 280.8, 114.3 283.9 Q 114.3 287.0, 115.6 288.6 Q 116.9 290.2, 119.3 290.2 " fill="#000000"/>
</g>
    <g transform="translate(110, 0) scale(1 1) "><metadata>
  <rdf:RDF xmlns:dc="http://purl.org/dc/elements/1.1/" xmlns:cc="http://creativecommons.org/ns#" xmlns:rdf="http://www.w3.org/1999/02/22-rdf-syntax-ns#">
   <cc:Work>
    <dc:type rdf:resource="http://purl.org/dc/dcmitype/StillImage"/>
    <dc:date>2024-03-12T14:50:30.262044</dc:date>
    <dc:format>image/svg+xml</dc:format>
    <dc:creator>
     <cc:Agent>
      <dc:title>Matplotlib v3.5.1, https://matplotlib.org/</dc:title>
     </cc:Agent>
    </dc:creator>
   </cc:Work>
  </rdf:RDF>
 </metadata>
 <defs>
  <style type="text/css">*{stroke-linejoin: round; stroke-linecap: butt}</style>
 </defs>
 <g id="figure_1">
  <g id="patch_1">
   <path d="M 0 252  L 504 252  L 504 0  L 0 0  L 0 252  z " style="fill: none"/>
  </g>
  <g id="axes_1">
   <g id="patch_2">
    <path d="M 57.58125 208.79375  L 246.6 208.79375  L 246.6 26.8  L 57.58125 26.8  z " style="fill: #ffffff"/>
   </g>
   <g id="line2d_1">
    <path d="M 151.771755 208.79375  L 151.771755 26.8  " clip-path="url(#pc764d74b4b)" style="fill: none; stroke: #d3d3d3; stroke-width: 1.5; stroke-linecap: square"/>
   </g>
   <g id="line2d_2">
    <path d="M 57.58125 102.307846  L 246.6 102.307846  " clip-path="url(#pc764d74b4b)" style="fill: none; stroke: #d3d3d3; stroke-width: 1.5; stroke-linecap: square"/>
   </g>
   <g id="matplotlib.axis_1">
    <g id="xtick_1">
     <g id="line2d_3">
      <defs>
       <path id="mc888aca390" d="M 0 0  L 0 3.5  " style="stroke: #000000; stroke-width: 0.8"/>
      </defs>
      <g>
       <use xlink:href="#mc888aca390" x="66.173011" y="208.79375" style="stroke: #000000; stroke-width: 0.8"/>
      </g>
     </g>
     <g id="text_1">
      <!-- 0 -->
      <g transform="translate(62.991761 223.392188)scale(0.1 -0.1)">
       <defs>
        <path id="DejaVuSans-30" d="M 2034 4250  Q 1547 4250 1301 3770  Q 1056 3291 1056 2328  Q 1056 1369 1301 889  Q 1547 409 2034 409  Q 2525 409 2770 889  Q 3016 1369 3016 2328  Q 3016 3291 2770 3770  Q 2525 4250 2034 4250  z M 2034 4750  Q 2819 4750 3233 4129  Q 3647 3509 3647 2328  Q 3647 1150 3233 529  Q 2819 -91 2034 -91  Q 1250 -91 836 529  Q 422 1150 422 2328  Q 422 3509 836 4129  Q 1250 4750 2034 4750  z " transform="scale(0.015625)"/>
       </defs>
       <use xlink:href="#DejaVuSans-30"/>
      </g>
     </g>
    </g>
    <g id="xtick_2">
     <g id="line2d_4">
      <g>
       <use xlink:href="#mc888aca390" x="100.540057" y="208.79375" style="stroke: #000000; stroke-width: 0.8"/>
      </g>
     </g>
     <g id="text_2">
      <!-- 1 -->
      <g transform="translate(97.358807 223.392188)scale(0.1 -0.1)">
       <defs>
        <path id="DejaVuSans-31" d="M 794 531  L 1825 531  L 1825 4091  L 703 3866  L 703 4441  L 1819 4666  L 2450 4666  L 2450 531  L 3481 531  L 3481 0  L 794 0  L 794 531  z " transform="scale(0.015625)"/>
       </defs>
       <use xlink:href="#DejaVuSans-31"/>
      </g>
     </g>
    </g>
    <g id="xtick_3">
     <g id="line2d_5">
      <g>
       <use xlink:href="#mc888aca390" x="134.907102" y="208.79375" style="stroke: #000000; stroke-width: 0.8"/>
      </g>
     </g>
     <g id="text_3">
      <!-- 2 -->
      <g transform="translate(131.725852 223.392188)scale(0.1 -0.1)">
       <defs>
        <path id="DejaVuSans-32" d="M 1228 531  L 3431 531  L 3431 0  L 469 0  L 469 531  Q 828 903 1448 1529  Q 2069 2156 2228 2338  Q 2531 2678 2651 2914  Q 2772 3150 2772 3378  Q 2772 3750 2511 3984  Q 2250 4219 1831 4219  Q 1534 4219 1204 4116  Q 875 4013 500 3803  L 500 4441  Q 881 4594 1212 4672  Q 1544 4750 1819 4750  Q 2544 4750 2975 4387  Q 3406 4025 3406 3419  Q 3406 3131 3298 2873  Q 3191 2616 2906 2266  Q 2828 2175 2409 1742  Q 1991 1309 1228 531  z " transform="scale(0.015625)"/>
       </defs>
       <use xlink:href="#DejaVuSans-32"/>
      </g>
     </g>
    </g>
    <g id="xtick_4">
     <g id="line2d_6">
      <g>
       <use xlink:href="#mc888aca390" x="169.274148" y="208.79375" style="stroke: #000000; stroke-width: 0.8"/>
      </g>
     </g>
     <g id="text_4">
      <!-- 3 -->
      <g transform="translate(166.092898 223.392188)scale(0.1 -0.1)">
       <defs>
        <path id="DejaVuSans-33" d="M 2597 2516  Q 3050 2419 3304 2112  Q 3559 1806 3559 1356  Q 3559 666 3084 287  Q 2609 -91 1734 -91  Q 1441 -91 1130 -33  Q 819 25 488 141  L 488 750  Q 750 597 1062 519  Q 1375 441 1716 441  Q 2309 441 2620 675  Q 2931 909 2931 1356  Q 2931 1769 2642 2001  Q 2353 2234 1838 2234  L 1294 2234  L 1294 2753  L 1863 2753  Q 2328 2753 2575 2939  Q 2822 3125 2822 3475  Q 2822 3834 2567 4026  Q 2313 4219 1838 4219  Q 1578 4219 1281 4162  Q 984 4106 628 3988  L 628 4550  Q 988 4650 1302 4700  Q 1616 4750 1894 4750  Q 2613 4750 3031 4423  Q 3450 4097 3450 3541  Q 3450 3153 3228 2886  Q 3006 2619 2597 2516  z " transform="scale(0.015625)"/>
       </defs>
       <use xlink:href="#DejaVuSans-33"/>
      </g>
     </g>
    </g>
    <g id="xtick_5">
     <g id="line2d_7">
      <g>
       <use xlink:href="#mc888aca390" x="203.641193" y="208.79375" style="stroke: #000000; stroke-width: 0.8"/>
      </g>
     </g>
     <g id="text_5">
      <!-- 4 -->
      <g transform="translate(200.459943 223.392188)scale(0.1 -0.1)">
       <defs>
        <path id="DejaVuSans-34" d="M 2419 4116  L 825 1625  L 2419 1625  L 2419 4116  z M 2253 4666  L 3047 4666  L 3047 1625  L 3713 1625  L 3713 1100  L 3047 1100  L 3047 0  L 2419 0  L 2419 1100  L 313 1100  L 313 1709  L 2253 4666  z " transform="scale(0.015625)"/>
       </defs>
       <use xlink:href="#DejaVuSans-34"/>
      </g>
     </g>
    </g>
    <g id="xtick_6">
     <g id="line2d_8">
      <g>
       <use xlink:href="#mc888aca390" x="238.008239" y="208.79375" style="stroke: #000000; stroke-width: 0.8"/>
      </g>
     </g>
     <g id="text_6">
      <!-- 5 -->
      <g transform="translate(234.826989 223.392188)scale(0.1 -0.1)">
       <defs>
        <path id="DejaVuSans-35" d="M 691 4666  L 3169 4666  L 3169 4134  L 1269 4134  L 1269 2991  Q 1406 3038 1543 3061  Q 1681 3084 1819 3084  Q 2600 3084 3056 2656  Q 3513 2228 3513 1497  Q 3513 744 3044 326  Q 2575 -91 1722 -91  Q 1428 -91 1123 -41  Q 819 9 494 109  L 494 744  Q 775 591 1075 516  Q 1375 441 1709 441  Q 2250 441 2565 725  Q 2881 1009 2881 1497  Q 2881 1984 2565 2268  Q 2250 2553 1709 2553  Q 1456 2553 1204 2497  Q 953 2441 691 2322  L 691 4666  z " transform="scale(0.015625)"/>
       </defs>
       <use xlink:href="#DejaVuSans-35"/>
      </g>
     </g>
    </g>
    <g id="text_7">
     <!-- Outer atom distance (&#197;) -->
     <g transform="translate(91.664063 237.99375)scale(0.1 -0.1)">
      <defs>
       <path id="DejaVuSans-4f" d="M 2522 4238  Q 1834 4238 1429 3725  Q 1025 3213 1025 2328  Q 1025 1447 1429 934  Q 1834 422 2522 422  Q 3209 422 3611 934  Q 4013 1447 4013 2328  Q 4013 3213 3611 3725  Q 3209 4238 2522 4238  z M 2522 4750  Q 3503 4750 4090 4092  Q 4678 3434 4678 2328  Q 4678 1225 4090 567  Q 3503 -91 2522 -91  Q 1538 -91 948 565  Q 359 1222 359 2328  Q 359 3434 948 4092  Q 1538 4750 2522 4750  z " transform="scale(0.015625)"/>
       <path id="DejaVuSans-75" d="M 544 1381  L 544 3500  L 1119 3500  L 1119 1403  Q 1119 906 1312 657  Q 1506 409 1894 409  Q 2359 409 2629 706  Q 2900 1003 2900 1516  L 2900 3500  L 3475 3500  L 3475 0  L 2900 0  L 2900 538  Q 2691 219 2414 64  Q 2138 -91 1772 -91  Q 1169 -91 856 284  Q 544 659 544 1381  z M 1991 3584  L 1991 3584  z " transform="scale(0.015625)"/>
       <path id="DejaVuSans-74" d="M 1172 4494  L 1172 3500  L 2356 3500  L 2356 3053  L 1172 3053  L 1172 1153  Q 1172 725 1289 603  Q 1406 481 1766 481  L 2356 481  L 2356 0  L 1766 0  Q 1100 0 847 248  Q 594 497 594 1153  L 594 3053  L 172 3053  L 172 3500  L 594 3500  L 594 4494  L 1172 4494  z " transform="scale(0.015625)"/>
       <path id="DejaVuSans-65" d="M 3597 1894  L 3597 1613  L 953 1613  Q 991 1019 1311 708  Q 1631 397 2203 397  Q 2534 397 2845 478  Q 3156 559 3463 722  L 3463 178  Q 3153 47 2828 -22  Q 2503 -91 2169 -91  Q 1331 -91 842 396  Q 353 884 353 1716  Q 353 2575 817 3079  Q 1281 3584 2069 3584  Q 2775 3584 3186 3129  Q 3597 2675 3597 1894  z M 3022 2063  Q 3016 2534 2758 2815  Q 2500 3097 2075 3097  Q 1594 3097 1305 2825  Q 1016 2553 972 2059  L 3022 2063  z " transform="scale(0.015625)"/>
       <path id="DejaVuSans-72" d="M 2631 2963  Q 2534 3019 2420 3045  Q 2306 3072 2169 3072  Q 1681 3072 1420 2755  Q 1159 2438 1159 1844  L 1159 0  L 581 0  L 581 3500  L 1159 3500  L 1159 2956  Q 1341 3275 1631 3429  Q 1922 3584 2338 3584  Q 2397 3584 2469 3576  Q 2541 3569 2628 3553  L 2631 2963  z " transform="scale(0.015625)"/>
       <path id="DejaVuSans-20" transform="scale(0.015625)"/>
       <path id="DejaVuSans-61" d="M 2194 1759  Q 1497 1759 1228 1600  Q 959 1441 959 1056  Q 959 750 1161 570  Q 1363 391 1709 391  Q 2188 391 2477 730  Q 2766 1069 2766 1631  L 2766 1759  L 2194 1759  z M 3341 1997  L 3341 0  L 2766 0  L 2766 531  Q 2569 213 2275 61  Q 1981 -91 1556 -91  Q 1019 -91 701 211  Q 384 513 384 1019  Q 384 1609 779 1909  Q 1175 2209 1959 2209  L 2766 2209  L 2766 2266  Q 2766 2663 2505 2880  Q 2244 3097 1772 3097  Q 1472 3097 1187 3025  Q 903 2953 641 2809  L 641 3341  Q 956 3463 1253 3523  Q 1550 3584 1831 3584  Q 2591 3584 2966 3190  Q 3341 2797 3341 1997  z " transform="scale(0.015625)"/>
       <path id="DejaVuSans-6f" d="M 1959 3097  Q 1497 3097 1228 2736  Q 959 2375 959 1747  Q 959 1119 1226 758  Q 1494 397 1959 397  Q 2419 397 2687 759  Q 2956 1122 2956 1747  Q 2956 2369 2687 2733  Q 2419 3097 1959 3097  z M 1959 3584  Q 2709 3584 3137 3096  Q 3566 2609 3566 1747  Q 3566 888 3137 398  Q 2709 -91 1959 -91  Q 1206 -91 779 398  Q 353 888 353 1747  Q 353 2609 779 3096  Q 1206 3584 1959 3584  z " transform="scale(0.015625)"/>
       <path id="DejaVuSans-6d" d="M 3328 2828  Q 3544 3216 3844 3400  Q 4144 3584 4550 3584  Q 5097 3584 5394 3201  Q 5691 2819 5691 2113  L 5691 0  L 5113 0  L 5113 2094  Q 5113 2597 4934 2840  Q 4756 3084 4391 3084  Q 3944 3084 3684 2787  Q 3425 2491 3425 1978  L 3425 0  L 2847 0  L 2847 2094  Q 2847 2600 2669 2842  Q 2491 3084 2119 3084  Q 1678 3084 1418 2786  Q 1159 2488 1159 1978  L 1159 0  L 581 0  L 581 3500  L 1159 3500  L 1159 2956  Q 1356 3278 1631 3431  Q 1906 3584 2284 3584  Q 2666 3584 2933 3390  Q 3200 3197 3328 2828  z " transform="scale(0.015625)"/>
       <path id="DejaVuSans-64" d="M 2906 2969  L 2906 4863  L 3481 4863  L 3481 0  L 2906 0  L 2906 525  Q 2725 213 2448 61  Q 2172 -91 1784 -91  Q 1150 -91 751 415  Q 353 922 353 1747  Q 353 2572 751 3078  Q 1150 3584 1784 3584  Q 2172 3584 2448 3432  Q 2725 3281 2906 2969  z M 947 1747  Q 947 1113 1208 752  Q 1469 391 1925 391  Q 2381 391 2643 752  Q 2906 1113 2906 1747  Q 2906 2381 2643 2742  Q 2381 3103 1925 3103  Q 1469 3103 1208 2742  Q 947 2381 947 1747  z " transform="scale(0.015625)"/>
       <path id="DejaVuSans-69" d="M 603 3500  L 1178 3500  L 1178 0  L 603 0  L 603 3500  z M 603 4863  L 1178 4863  L 1178 4134  L 603 4134  L 603 4863  z " transform="scale(0.015625)"/>
       <path id="DejaVuSans-73" d="M 2834 3397  L 2834 2853  Q 2591 2978 2328 3040  Q 2066 3103 1784 3103  Q 1356 3103 1142 2972  Q 928 2841 928 2578  Q 928 2378 1081 2264  Q 1234 2150 1697 2047  L 1894 2003  Q 2506 1872 2764 1633  Q 3022 1394 3022 966  Q 3022 478 2636 193  Q 2250 -91 1575 -91  Q 1294 -91 989 -36  Q 684 19 347 128  L 347 722  Q 666 556 975 473  Q 1284 391 1588 391  Q 1994 391 2212 530  Q 2431 669 2431 922  Q 2431 1156 2273 1281  Q 2116 1406 1581 1522  L 1381 1569  Q 847 1681 609 1914  Q 372 2147 372 2553  Q 372 3047 722 3315  Q 1072 3584 1716 3584  Q 2034 3584 2315 3537  Q 2597 3491 2834 3397  z " transform="scale(0.015625)"/>
       <path id="DejaVuSans-6e" d="M 3513 2113  L 3513 0  L 2938 0  L 2938 2094  Q 2938 2591 2744 2837  Q 2550 3084 2163 3084  Q 1697 3084 1428 2787  Q 1159 2491 1159 1978  L 1159 0  L 581 0  L 581 3500  L 1159 3500  L 1159 2956  Q 1366 3272 1645 3428  Q 1925 3584 2291 3584  Q 2894 3584 3203 3211  Q 3513 2838 3513 2113  z " transform="scale(0.015625)"/>
       <path id="DejaVuSans-63" d="M 3122 3366  L 3122 2828  Q 2878 2963 2633 3030  Q 2388 3097 2138 3097  Q 1578 3097 1268 2742  Q 959 2388 959 1747  Q 959 1106 1268 751  Q 1578 397 2138 397  Q 2388 397 2633 464  Q 2878 531 3122 666  L 3122 134  Q 2881 22 2623 -34  Q 2366 -91 2075 -91  Q 1284 -91 818 406  Q 353 903 353 1747  Q 353 2603 823 3093  Q 1294 3584 2113 3584  Q 2378 3584 2631 3529  Q 2884 3475 3122 3366  z " transform="scale(0.015625)"/>
       <path id="DejaVuSans-28" d="M 1984 4856  Q 1566 4138 1362 3434  Q 1159 2731 1159 2009  Q 1159 1288 1364 580  Q 1569 -128 1984 -844  L 1484 -844  Q 1016 -109 783 600  Q 550 1309 550 2009  Q 550 2706 781 3412  Q 1013 4119 1484 4856  L 1984 4856  z " transform="scale(0.015625)"/>
       <path id="DejaVuSans-c5" d="M 2663 5081  Q 2663 5278 2523 5417  Q 2384 5556 2188 5556  Q 1988 5556 1852 5420  Q 1716 5284 1716 5081  Q 1716 4884 1853 4746  Q 1991 4609 2188 4609  Q 2384 4609 2523 4746  Q 2663 4884 2663 5081  z M 2188 4044  L 1338 1722  L 3041 1722  L 2188 4044  z M 1716 4366  Q 1525 4494 1428 4673  Q 1331 4853 1331 5081  Q 1331 5441 1579 5691  Q 1828 5941 2188 5941  Q 2544 5941 2795 5689  Q 3047 5438 3047 5081  Q 3047 4863 2948 4678  Q 2850 4494 2663 4366  L 4325 0  L 3669 0  L 3244 1197  L 1141 1197  L 716 0  L 50 0  L 1716 4366  z " transform="scale(0.015625)"/>
       <path id="DejaVuSans-29" d="M 513 4856  L 1013 4856  Q 1481 4119 1714 3412  Q 1947 2706 1947 2009  Q 1947 1309 1714 600  Q 1481 -109 1013 -844  L 513 -844  Q 928 -128 1133 580  Q 1338 1288 1338 2009  Q 1338 2731 1133 3434  Q 928 4138 513 4856  z " transform="scale(0.015625)"/>
      </defs>
      <use xlink:href="#DejaVuSans-4f"/>
      <use xlink:href="#DejaVuSans-75" x="78.710938"/>
      <use xlink:href="#DejaVuSans-74" x="142.089844"/>
      <use xlink:href="#DejaVuSans-65" x="181.298828"/>
      <use xlink:href="#DejaVuSans-72" x="242.822266"/>
      <use xlink:href="#DejaVuSans-20" x="283.935547"/>
      <use xlink:href="#DejaVuSans-61" x="315.722656"/>
      <use xlink:href="#DejaVuSans-74" x="377.001953"/>
      <use xlink:href="#DejaVuSans-6f" x="416.210938"/>
      <use xlink:href="#DejaVuSans-6d" x="477.392578"/>
      <use xlink:href="#DejaVuSans-20" x="574.804688"/>
      <use xlink:href="#DejaVuSans-64" x="606.591797"/>
      <use xlink:href="#DejaVuSans-69" x="670.068359"/>
      <use xlink:href="#DejaVuSans-73" x="697.851562"/>
      <use xlink:href="#DejaVuSans-74" x="749.951172"/>
      <use xlink:href="#DejaVuSans-61" x="789.160156"/>
      <use xlink:href="#DejaVuSans-6e" x="850.439453"/>
      <use xlink:href="#DejaVuSans-63" x="913.818359"/>
      <use xlink:href="#DejaVuSans-65" x="968.798828"/>
      <use xlink:href="#DejaVuSans-20" x="1030.322266"/>
      <use xlink:href="#DejaVuSans-28" x="1062.109375"/>
      <use xlink:href="#DejaVuSans-c5" x="1101.123047"/>
      <use xlink:href="#DejaVuSans-29" x="1169.53125"/>
     </g>
    </g>
   </g>
   <g id="matplotlib.axis_2">
    <g id="ytick_1">
     <g id="line2d_9">
      <defs>
       <path id="mae48663985" d="M 0 0  L -3.5 0  " style="stroke: #000000; stroke-width: 0.8"/>
      </defs>
      <g>
       <use xlink:href="#mae48663985" x="57.58125" y="173.50296" style="stroke: #000000; stroke-width: 0.8"/>
      </g>
     </g>
     <g id="text_8">
      <!-- &#8722;0.4 -->
      <g transform="translate(26.298438 177.302179)scale(0.1 -0.1)">
       <defs>
        <path id="DejaVuSans-2212" d="M 678 2272  L 4684 2272  L 4684 1741  L 678 1741  L 678 2272  z " transform="scale(0.015625)"/>
        <path id="DejaVuSans-2e" d="M 684 794  L 1344 794  L 1344 0  L 684 0  L 684 794  z " transform="scale(0.015625)"/>
       </defs>
       <use xlink:href="#DejaVuSans-2212"/>
       <use xlink:href="#DejaVuSans-30" x="83.789062"/>
       <use xlink:href="#DejaVuSans-2e" x="147.412109"/>
       <use xlink:href="#DejaVuSans-34" x="179.199219"/>
      </g>
     </g>
    </g>
    <g id="ytick_2">
     <g id="line2d_10">
      <g>
       <use xlink:href="#mae48663985" x="57.58125" y="137.905403" style="stroke: #000000; stroke-width: 0.8"/>
      </g>
     </g>
     <g id="text_9">
      <!-- &#8722;0.2 -->
      <g transform="translate(26.298438 141.704622)scale(0.1 -0.1)">
       <use xlink:href="#DejaVuSans-2212"/>
       <use xlink:href="#DejaVuSans-30" x="83.789062"/>
       <use xlink:href="#DejaVuSans-2e" x="147.412109"/>
       <use xlink:href="#DejaVuSans-32" x="179.199219"/>
      </g>
     </g>
    </g>
    <g id="ytick_3">
     <g id="line2d_11">
      <g>
       <use xlink:href="#mae48663985" x="57.58125" y="102.307846" style="stroke: #000000; stroke-width: 0.8"/>
      </g>
     </g>
     <g id="text_10">
      <!-- 0.0 -->
      <g transform="translate(34.678125 106.107064)scale(0.1 -0.1)">
       <use xlink:href="#DejaVuSans-30"/>
       <use xlink:href="#DejaVuSans-2e" x="63.623047"/>
       <use xlink:href="#DejaVuSans-30" x="95.410156"/>
      </g>
     </g>
    </g>
    <g id="ytick_4">
     <g id="line2d_12">
      <g>
       <use xlink:href="#mae48663985" x="57.58125" y="66.710288" style="stroke: #000000; stroke-width: 0.8"/>
      </g>
     </g>
     <g id="text_11">
      <!-- 0.2 -->
      <g transform="translate(34.678125 70.509507)scale(0.1 -0.1)">
       <use xlink:href="#DejaVuSans-30"/>
       <use xlink:href="#DejaVuSans-2e" x="63.623047"/>
       <use xlink:href="#DejaVuSans-32" x="95.410156"/>
      </g>
     </g>
    </g>
    <g id="ytick_5">
     <g id="line2d_13">
      <g>
       <use xlink:href="#mae48663985" x="57.58125" y="31.112731" style="stroke: #000000; stroke-width: 0.8"/>
      </g>
     </g>
     <g id="text_12">
      <!-- 0.4 -->
      <g transform="translate(34.678125 34.91195)scale(0.1 -0.1)">
       <use xlink:href="#DejaVuSans-30"/>
       <use xlink:href="#DejaVuSans-2e" x="63.623047"/>
       <use xlink:href="#DejaVuSans-34" x="95.410156"/>
      </g>
     </g>
    </g>
    <g id="text_13">
     <!-- MLP (&#197;) -->
     <g transform="translate(20.21875 136.822656)rotate(-90)scale(0.1 -0.1)">
      <defs>
       <path id="DejaVuSans-4d" d="M 628 4666  L 1569 4666  L 2759 1491  L 3956 4666  L 4897 4666  L 4897 0  L 4281 0  L 4281 4097  L 3078 897  L 2444 897  L 1241 4097  L 1241 0  L 628 0  L 628 4666  z " transform="scale(0.015625)"/>
       <path id="DejaVuSans-4c" d="M 628 4666  L 1259 4666  L 1259 531  L 3531 531  L 3531 0  L 628 0  L 628 4666  z " transform="scale(0.015625)"/>
       <path id="DejaVuSans-50" d="M 1259 4147  L 1259 2394  L 2053 2394  Q 2494 2394 2734 2622  Q 2975 2850 2975 3272  Q 2975 3691 2734 3919  Q 2494 4147 2053 4147  L 1259 4147  z M 628 4666  L 2053 4666  Q 2838 4666 3239 4311  Q 3641 3956 3641 3272  Q 3641 2581 3239 2228  Q 2838 1875 2053 1875  L 1259 1875  L 1259 0  L 628 0  L 628 4666  z " transform="scale(0.015625)"/>
      </defs>
      <use xlink:href="#DejaVuSans-4d"/>
      <use xlink:href="#DejaVuSans-4c" x="86.279297"/>
      <use xlink:href="#DejaVuSans-50" x="141.992188"/>
      <use xlink:href="#DejaVuSans-20" x="202.294922"/>
      <use xlink:href="#DejaVuSans-28" x="234.082031"/>
      <use xlink:href="#DejaVuSans-c5" x="273.095703"/>
      <use xlink:href="#DejaVuSans-29" x="341.503906"/>
     </g>
    </g>
   </g>
   <g id="line2d_14">
    <path d="M 66.173011 43.810208  L 67.908721 44.593208  L 69.64443 45.376209  L 71.38014 46.159204  L 73.115849 46.961603  L 74.851558 47.880286  L 76.587268 48.859566  L 78.322977 49.611626  L 80.058686 50.192394  L 81.794395 51.046071  L 83.530104 52.103932  L 85.265813 53.161793  L 87.001524 54.21966  L 88.737233 55.278985  L 90.472943 56.483461  L 92.208652 58.072822  L 93.944361 59.801335  L 95.68007 61.530883  L 97.415779 63.243912  L 99.151488 64.919506  L 100.887197 66.802402  L 102.622906 68.676395  L 104.358615 70.541015  L 106.094324 72.405641  L 107.830037 74.270258  L 109.565746 76.134881  L 111.301456 77.999501  L 113.037165 79.833639  L 114.772874 81.604292  L 116.508583 83.152056  L 118.244292 84.310395  L 119.980001 85.468738  L 121.71571 86.585916  L 123.451419 87.736948  L 125.187128 88.865924  L 126.922837 89.905066  L 128.658546 91.003942  L 130.394255 92.204589  L 132.129964 93.405239  L 133.865674 94.605889  L 135.601383 95.74142  L 137.337096 96.795118  L 139.072801 97.840511  L 140.808514 98.885915  L 142.544219 99.931305  L 144.279932 100.976714  L 146.015637 102.02211  L 147.75135 102.252575  L 149.487063 102.255674  L 151.222768 102.258768  L 152.958482 102.261864  L 154.694187 102.264958  L 156.4299 102.268056  L 158.165613 102.271151  L 159.901318 102.27425  L 161.637031 102.621217  L 163.372736 103.290289  L 165.108449 104.488252  L 166.844154 105.686208  L 168.579867 106.884165  L 170.315572 108.082122  L 172.051286 109.280084  L 173.786991 109.928911  L 175.522704 110.4034  L 177.258409 110.552142  L 178.994122 110.369334  L 180.729827 110.62598  L 182.46554 110.88263  L 184.201253 111.230233  L 185.936958 111.683981  L 187.672671 112.151741  L 189.408376 112.619511  L 191.144089 113.087263  L 192.879794 113.550285  L 194.615508 113.932299  L 196.351213 114.314304  L 198.086926 114.696309  L 199.822631 115.080919  L 201.558344 115.473787  L 203.294049 115.866659  L 205.029754 116.263524  L 206.765467 116.687822  L 208.50118 117.11212  L 210.236893 117.536401  L 211.972607 117.960704  L 213.708303 118.384986  L 215.444017 118.809284  L 217.17973 119.222004  L 218.915443 119.606558  L 220.65114 119.991072  L 222.386853 120.375629  L 224.122566 120.76017  L 225.858279 121.1447  L 227.593976 121.475586  L 229.329689 121.73147  L 231.065402 121.987344  L 232.801116 122.243236  L 234.536812 122.499112  L 236.272525 122.754977  L 238.008239 122.981092  " clip-path="url(#pc764d74b4b)" style="fill: none; stroke: #1f77b4; stroke-width: 1.5; stroke-linecap: square"/>
   </g>
   <g id="line2d_15">
    <path d="M 66.173011 35.072443  L 67.908721 36.521003  L 69.64443 37.92341  L 71.38014 39.245056  L 73.115849 40.723613  L 74.851558 42.253294  L 76.587268 43.785118  L 78.322977 45.181074  L 80.058686 46.118948  L 81.794395 47.022991  L 83.530104 47.892316  L 85.265813 48.761609  L 87.001524 49.630929  L 88.737233 50.616522  L 90.472943 51.898581  L 92.208652 53.180624  L 93.944361 54.462699  L 95.68007 55.785904  L 97.415779 57.94725  L 99.151488 60.214812  L 100.887197 62.411215  L 102.622906 64.291499  L 104.358615 66.171793  L 106.094324 68.052088  L 107.830037 69.989597  L 109.565746 71.939844  L 111.301456 73.912746  L 113.037165 75.916486  L 114.772874 77.920218  L 116.508583 79.923958  L 118.244292 81.859994  L 119.980001 83.721241  L 121.71571 85.58249  L 123.451419 87.447415  L 125.187128 89.306558  L 126.922837 90.997394  L 128.658546 92.624398  L 130.394255 94.251391  L 132.129964 95.781603  L 133.865674 97.005957  L 135.601383 98.230343  L 137.337096 99.454711  L 139.072801 100.679076  L 140.808514 101.903454  L 142.544219 103.251485  L 144.279932 104.517891  L 146.015637 105.486697  L 147.75135 106.462162  L 149.487063 107.495617  L 151.222768 108.529043  L 152.958482 109.6232  L 154.694187 110.270486  L 156.4299 110.864786  L 158.165613 111.530775  L 159.901318 112.387407  L 161.637031 113.356479  L 163.372736 114.325517  L 165.108449 115.294579  L 166.844154 116.265227  L 168.579867 117.391526  L 170.315572 118.517809  L 172.051286 119.644124  L 173.786991 120.77041  L 175.522704 121.896712  L 177.258409 123.023008  L 178.994122 124.02552  L 180.729827 125.119185  L 182.46554 126.212877  L 184.201253 127.306543  L 185.936958 128.400231  L 187.672671 129.156072  L 189.408376 129.415672  L 191.144089 129.67524  L 192.879794 129.934829  L 194.615508 130.194429  L 196.351213 130.453991  L 198.086926 130.702102  L 199.822631 130.929567  L 201.558344 131.157006  L 203.294049 131.380472  L 205.029754 131.49631  L 206.765467 131.595106  L 208.50118 131.693901  L 210.236893 131.792702  L 211.972607 131.891492  L 213.708303 131.990298  L 215.444017 132.089067  L 217.17973 132.187883  L 218.915443 132.286668  L 220.65114 132.385448  L 222.386853 132.484259  L 224.122566 132.583038  L 225.858279 132.681839  L 227.593976 132.780624  L 229.329689 132.87944  L 231.065402 132.978209  L 232.801116 133.077015  L 234.536812 133.130845  L 236.272525 133.108004  L 238.008239 133.085184  " clip-path="url(#pc764d74b4b)" style="fill: none; stroke-dasharray: 5.55,2.4; stroke-dashoffset: 0; stroke: #ff7f0e; stroke-width: 1.5"/>
   </g>
   <g id="line2d_16">
    <path d="M 66.173011 84.456766  L 67.908721 85.105775  L 69.64443 85.729004  L 71.38014 86.353189  L 73.115849 86.977407  L 74.851558 87.601525  L 76.587268 88.225686  L 78.322977 88.849879  L 80.058686 89.745984  L 81.794395 90.878048  L 83.530104 92.010091  L 85.265813 93.142059  L 87.001524 94.400443  L 88.737233 95.744977  L 90.472943 96.755372  L 92.208652 97.626283  L 93.944361 98.497865  L 95.68007 99.369606  L 97.415779 100.241223  L 99.151488 101.112951  L 100.887197 101.984691  L 102.622906 102.856185  L 104.358615 103.727948  L 106.094324 104.599613  L 107.830037 105.471307  L 109.565746 106.299448  L 111.301456 107.094129  L 113.037165 107.89644  L 114.772874 108.698809  L 116.508583 109.501078  L 118.244292 110.303403  L 119.980001 111.109724  L 121.71571 111.928803  L 123.451419 112.728992  L 125.187128 113.511619  L 126.922837 114.296926  L 128.658546 115.095588  L 130.394255 115.894242  L 132.129964 116.692933  L 133.865674 117.491682  L 135.601383 118.290288  L 137.337096 119.086521  L 139.072801 119.873701  L 140.808514 120.660894  L 142.544219 121.448096  L 144.279932 122.235295  L 146.015637 123.022457  L 147.75135 123.809663  L 149.487063 124.596898  L 151.222768 125.383988  L 152.958482 126.171248  L 154.694187 126.958449  L 156.4299 127.745614  L 158.165613 128.532799  L 159.901318 129.320038  L 161.637031 130.107202  L 163.372736 130.894335  L 165.108449 131.681547  L 166.844154 132.46878  L 168.579867 133.255987  L 170.315572 134.04304  L 172.051286 134.830252  L 173.786991 135.617374  L 175.522704 136.404666  L 177.258409 137.191867  L 178.994122 137.979154  L 180.729827 138.766249  L 182.46554 139.553371  L 184.201253 140.34062  L 185.936958 141.172989  L 187.672671 142.064757  L 189.408376 142.956446  L 191.144089 143.848204  L 192.879794 144.739924  L 194.615508 145.63165  L 196.351213 146.523391  L 198.086926 147.415101  L 199.822631 148.281121  L 201.558344 148.864738  L 203.294049 149.475609  L 205.029754 150.2209  L 206.765467 151.056298  L 208.50118 152.059077  L 210.236893 153.061724  L 211.972607 154.064451  L 213.708303 155.067231  L 215.444017 156.069968  L 217.17973 157.056627  L 218.915443 158.00945  L 220.65114 158.962251  L 222.386853 159.915052  L 224.122566 160.867832  L 225.858279 161.820596  L 227.593976 162.773429  L 229.329689 163.726219  L 231.065402 164.659919  L 232.801116 165.547343  L 234.536812 166.434835  L 236.272525 167.549693  L 238.008239 168.677403  " clip-path="url(#pc764d74b4b)" style="fill: none; stroke-dasharray: 1.5,2.475; stroke-dashoffset: 0; stroke: #2ca02c; stroke-width: 1.5"/>
   </g>
   <g id="line2d_17">
    <path d="M 66.173011 96.694901  L 67.908721 98.070239  L 69.64443 99.445853  L 71.38014 100.820978  L 73.115849 102.03697  L 74.851558 103.19491  L 76.587268 104.353041  L 78.322977 105.511087  L 80.058686 106.669112  L 81.794395 107.827052  L 83.530104 108.98565  L 85.265813 110.143505  L 87.001524 111.301658  L 88.737233 112.459789  L 90.472943 113.617898  L 92.208652 114.775435  L 93.944361 115.869637  L 95.68007 116.884463  L 97.415779 117.898992  L 99.151488 118.913755  L 100.887197 119.928475  L 102.622906 120.942961  L 104.358615 121.957681  L 106.094324 122.972083  L 107.830037 123.986675  L 109.565746 125.001288  L 111.301456 126.016263  L 113.037165 127.030304  L 114.772874 128.045087  L 116.508583 129.05985  L 118.244292 130.0751  L 119.980001 131.090987  L 121.71571 132.107595  L 123.451419 133.123758  L 125.187128 134.140048  L 126.922837 135.072761  L 128.658546 135.991619  L 130.394255 136.910859  L 132.129964 137.830141  L 133.865674 138.748893  L 135.601383 139.668091  L 137.337096 140.587352  L 139.072801 141.506443  L 140.808514 142.425768  L 142.544219 143.344859  L 144.279932 144.264099  L 146.015637 145.190489  L 147.75135 146.249915  L 149.487063 147.309044  L 151.222768 148.368512  L 152.958482 149.427577  L 154.694187 150.551229  L 156.4299 151.741357  L 158.165613 152.931887  L 159.901318 154.121973  L 161.637031 155.312206  L 163.372736 156.502652  L 165.108449 157.531376  L 166.844154 158.540239  L 168.579867 159.592494  L 170.315572 160.645045  L 172.051286 161.697787  L 173.786991 162.750466  L 175.522704 163.803272  L 177.258409 164.855738  L 178.994122 165.908353  L 180.729827 166.960756  L 182.46554 168.01354  L 184.201253 169.066389  L 185.936958 170.106273  L 187.672671 171.13122  L 189.408376 172.15604  L 191.144089 173.181305  L 192.879794 174.206443  L 194.615508 175.231517  L 196.351213 176.256421  L 198.086926 177.281262  L 199.822631 178.30657  L 201.558344 179.331729  L 203.294049 180.356824  L 205.029754 181.381793  L 206.765467 182.406549  L 208.50118 183.431941  L 210.236893 184.456633  L 211.972607 185.481899  L 213.708303 186.506718  L 215.444017 187.531729  L 217.17973 188.557036  L 218.915443 189.582111  L 220.65114 190.60693  L 222.386853 191.632301  L 224.122566 192.656888  L 225.858279 193.682259  L 227.593976 194.707142  L 229.329689 195.687595  L 231.065402 196.652157  L 232.801116 197.6171  L 234.536812 198.581894  L 236.272525 199.546307  L 238.008239 200.521307  " clip-path="url(#pc764d74b4b)" style="fill: none; stroke-dasharray: 9.6,2.4,1.5,2.4; stroke-dashoffset: 0; stroke: #d62728; stroke-width: 1.5"/>
   </g>
   <g id="patch_3">
    <path d="M 57.58125 208.79375  L 57.58125 26.8  " style="fill: none; stroke: #000000; stroke-width: 0.8; stroke-linejoin: miter; stroke-linecap: square"/>
   </g>
   <g id="patch_4">
    <path d="M 246.6 208.79375  L 246.6 26.8  " style="fill: none; stroke: #000000; stroke-width: 0.8; stroke-linejoin: miter; stroke-linecap: square"/>
   </g>
   <g id="patch_5">
    <path d="M 57.58125 208.79375  L 246.6 208.79375  " style="fill: none; stroke: #000000; stroke-width: 0.8; stroke-linejoin: miter; stroke-linecap: square"/>
   </g>
   <g id="patch_6">
    <path d="M 57.58125 26.8  L 246.6 26.8  " style="fill: none; stroke: #000000; stroke-width: 0.8; stroke-linejoin: miter; stroke-linecap: square"/>
   </g>
   <g id="text_14">
    <!-- PIDM[QMugs] -->
    <g transform="translate(111.586875 20.8)scale(0.12 -0.12)">
     <defs>
      <path id="DejaVuSans-49" d="M 628 4666  L 1259 4666  L 1259 0  L 628 0  L 628 4666  z " transform="scale(0.015625)"/>
      <path id="DejaVuSans-44" d="M 1259 4147  L 1259 519  L 2022 519  Q 2988 519 3436 956  Q 3884 1394 3884 2338  Q 3884 3275 3436 3711  Q 2988 4147 2022 4147  L 1259 4147  z M 628 4666  L 1925 4666  Q 3281 4666 3915 4102  Q 4550 3538 4550 2338  Q 4550 1131 3912 565  Q 3275 0 1925 0  L 628 0  L 628 4666  z " transform="scale(0.015625)"/>
      <path id="DejaVuSans-5b" d="M 550 4863  L 1875 4863  L 1875 4416  L 1125 4416  L 1125 -397  L 1875 -397  L 1875 -844  L 550 -844  L 550 4863  z " transform="scale(0.015625)"/>
      <path id="DejaVuSans-51" d="M 2522 4238  Q 1834 4238 1429 3725  Q 1025 3213 1025 2328  Q 1025 1447 1429 934  Q 1834 422 2522 422  Q 3209 422 3611 934  Q 4013 1447 4013 2328  Q 4013 3213 3611 3725  Q 3209 4238 2522 4238  z M 3406 84  L 4238 -825  L 3475 -825  L 2784 -78  Q 2681 -84 2626 -87  Q 2572 -91 2522 -91  Q 1538 -91 948 567  Q 359 1225 359 2328  Q 359 3434 948 4092  Q 1538 4750 2522 4750  Q 3503 4750 4090 4092  Q 4678 3434 4678 2328  Q 4678 1516 4351 937  Q 4025 359 3406 84  z " transform="scale(0.015625)"/>
      <path id="DejaVuSans-67" d="M 2906 1791  Q 2906 2416 2648 2759  Q 2391 3103 1925 3103  Q 1463 3103 1205 2759  Q 947 2416 947 1791  Q 947 1169 1205 825  Q 1463 481 1925 481  Q 2391 481 2648 825  Q 2906 1169 2906 1791  z M 3481 434  Q 3481 -459 3084 -895  Q 2688 -1331 1869 -1331  Q 1566 -1331 1297 -1286  Q 1028 -1241 775 -1147  L 775 -588  Q 1028 -725 1275 -790  Q 1522 -856 1778 -856  Q 2344 -856 2625 -561  Q 2906 -266 2906 331  L 2906 616  Q 2728 306 2450 153  Q 2172 0 1784 0  Q 1141 0 747 490  Q 353 981 353 1791  Q 353 2603 747 3093  Q 1141 3584 1784 3584  Q 2172 3584 2450 3431  Q 2728 3278 2906 2969  L 2906 3500  L 3481 3500  L 3481 434  z " transform="scale(0.015625)"/>
      <path id="DejaVuSans-5d" d="M 1947 4863  L 1947 -844  L 622 -844  L 622 -397  L 1369 -397  L 1369 4416  L 622 4416  L 622 4863  L 1947 4863  z " transform="scale(0.015625)"/>
     </defs>
     <use xlink:href="#DejaVuSans-50"/>
     <use xlink:href="#DejaVuSans-49" x="60.302734"/>
     <use xlink:href="#DejaVuSans-44" x="89.794922"/>
     <use xlink:href="#DejaVuSans-4d" x="166.796875"/>
     <use xlink:href="#DejaVuSans-5b" x="253.076172"/>
     <use xlink:href="#DejaVuSans-51" x="292.089844"/>
     <use xlink:href="#DejaVuSans-4d" x="370.800781"/>
     <use xlink:href="#DejaVuSans-75" x="457.080078"/>
     <use xlink:href="#DejaVuSans-67" x="520.458984"/>
     <use xlink:href="#DejaVuSans-73" x="583.935547"/>
     <use xlink:href="#DejaVuSans-5d" x="636.035156"/>
    </g>
   </g>
  </g>
  <g id="axes_2">
   <g id="patch_7">
    <path d="M 304.18125 208.79375  L 493.2 208.79375  L 493.2 26.8  L 304.18125 26.8  z " style="fill: #ffffff"/>
   </g>
   <g id="line2d_18">
    <path d="M 398.371755 208.79375  L 398.371755 26.8  " clip-path="url(#p4acd2d6c2e)" style="fill: none; stroke: #d3d3d3; stroke-width: 1.5; stroke-linecap: square"/>
   </g>
   <g id="line2d_19">
    <path d="M 304.18125 102.307846  L 493.2 102.307846  " clip-path="url(#p4acd2d6c2e)" style="fill: none; stroke: #d3d3d3; stroke-width: 1.5; stroke-linecap: square"/>
   </g>
   <g id="matplotlib.axis_3">
    <g id="xtick_7">
     <g id="line2d_20">
      <g>
       <use xlink:href="#mc888aca390" x="312.773011" y="208.79375" style="stroke: #000000; stroke-width: 0.8"/>
      </g>
     </g>
     <g id="text_15">
      <!-- 0 -->
      <g transform="translate(309.591761 223.392188)scale(0.1 -0.1)">
       <use xlink:href="#DejaVuSans-30"/>
      </g>
     </g>
    </g>
    <g id="xtick_8">
     <g id="line2d_21">
      <g>
       <use xlink:href="#mc888aca390" x="347.140057" y="208.79375" style="stroke: #000000; stroke-width: 0.8"/>
      </g>
     </g>
     <g id="text_16">
      <!-- 1 -->
      <g transform="translate(343.958807 223.392188)scale(0.1 -0.1)">
       <use xlink:href="#DejaVuSans-31"/>
      </g>
     </g>
    </g>
    <g id="xtick_9">
     <g id="line2d_22">
      <g>
       <use xlink:href="#mc888aca390" x="381.507102" y="208.79375" style="stroke: #000000; stroke-width: 0.8"/>
      </g>
     </g>
     <g id="text_17">
      <!-- 2 -->
      <g transform="translate(378.325852 223.392188)scale(0.1 -0.1)">
       <use xlink:href="#DejaVuSans-32"/>
      </g>
     </g>
    </g>
    <g id="xtick_10">
     <g id="line2d_23">
      <g>
       <use xlink:href="#mc888aca390" x="415.874148" y="208.79375" style="stroke: #000000; stroke-width: 0.8"/>
      </g>
     </g>
     <g id="text_18">
      <!-- 3 -->
      <g transform="translate(412.692898 223.392188)scale(0.1 -0.1)">
       <use xlink:href="#DejaVuSans-33"/>
      </g>
     </g>
    </g>
    <g id="xtick_11">
     <g id="line2d_24">
      <g>
       <use xlink:href="#mc888aca390" x="450.241193" y="208.79375" style="stroke: #000000; stroke-width: 0.8"/>
      </g>
     </g>
     <g id="text_19">
      <!-- 4 -->
      <g transform="translate(447.059943 223.392188)scale(0.1 -0.1)">
       <use xlink:href="#DejaVuSans-34"/>
      </g>
     </g>
    </g>
    <g id="xtick_12">
     <g id="line2d_25">
      <g>
       <use xlink:href="#mc888aca390" x="484.608239" y="208.79375" style="stroke: #000000; stroke-width: 0.8"/>
      </g>
     </g>
     <g id="text_20">
      <!-- 5 -->
      <g transform="translate(481.426989 223.392188)scale(0.1 -0.1)">
       <use xlink:href="#DejaVuSans-35"/>
      </g>
     </g>
    </g>
    <g id="text_21">
     <!-- Outer atom distance (&#197;) -->
     <g transform="translate(338.264063 237.99375)scale(0.1 -0.1)">
      <use xlink:href="#DejaVuSans-4f"/>
      <use xlink:href="#DejaVuSans-75" x="78.710938"/>
      <use xlink:href="#DejaVuSans-74" x="142.089844"/>
      <use xlink:href="#DejaVuSans-65" x="181.298828"/>
      <use xlink:href="#DejaVuSans-72" x="242.822266"/>
      <use xlink:href="#DejaVuSans-20" x="283.935547"/>
      <use xlink:href="#DejaVuSans-61" x="315.722656"/>
      <use xlink:href="#DejaVuSans-74" x="377.001953"/>
      <use xlink:href="#DejaVuSans-6f" x="416.210938"/>
      <use xlink:href="#DejaVuSans-6d" x="477.392578"/>
      <use xlink:href="#DejaVuSans-20" x="574.804688"/>
      <use xlink:href="#DejaVuSans-64" x="606.591797"/>
      <use xlink:href="#DejaVuSans-69" x="670.068359"/>
      <use xlink:href="#DejaVuSans-73" x="697.851562"/>
      <use xlink:href="#DejaVuSans-74" x="749.951172"/>
      <use xlink:href="#DejaVuSans-61" x="789.160156"/>
      <use xlink:href="#DejaVuSans-6e" x="850.439453"/>
      <use xlink:href="#DejaVuSans-63" x="913.818359"/>
      <use xlink:href="#DejaVuSans-65" x="968.798828"/>
      <use xlink:href="#DejaVuSans-20" x="1030.322266"/>
      <use xlink:href="#DejaVuSans-28" x="1062.109375"/>
      <use xlink:href="#DejaVuSans-c5" x="1101.123047"/>
      <use xlink:href="#DejaVuSans-29" x="1169.53125"/>
     </g>
    </g>
   </g>
   <g id="matplotlib.axis_4">
    <g id="ytick_6">
     <g id="line2d_26">
      <g>
       <use xlink:href="#mae48663985" x="304.18125" y="173.50296" style="stroke: #000000; stroke-width: 0.8"/>
      </g>
     </g>
     <g id="text_22">
      <!-- &#8722;0.4 -->
      <g transform="translate(272.898438 177.302179)scale(0.1 -0.1)">
       <use xlink:href="#DejaVuSans-2212"/>
       <use xlink:href="#DejaVuSans-30" x="83.789062"/>
       <use xlink:href="#DejaVuSans-2e" x="147.412109"/>
       <use xlink:href="#DejaVuSans-34" x="179.199219"/>
      </g>
     </g>
    </g>
    <g id="ytick_7">
     <g id="line2d_27">
      <g>
       <use xlink:href="#mae48663985" x="304.18125" y="137.905403" style="stroke: #000000; stroke-width: 0.8"/>
      </g>
     </g>
     <g id="text_23">
      <!-- &#8722;0.2 -->
      <g transform="translate(272.898438 141.704622)scale(0.1 -0.1)">
       <use xlink:href="#DejaVuSans-2212"/>
       <use xlink:href="#DejaVuSans-30" x="83.789062"/>
       <use xlink:href="#DejaVuSans-2e" x="147.412109"/>
       <use xlink:href="#DejaVuSans-32" x="179.199219"/>
      </g>
     </g>
    </g>
    <g id="ytick_8">
     <g id="line2d_28">
      <g>
       <use xlink:href="#mae48663985" x="304.18125" y="102.307846" style="stroke: #000000; stroke-width: 0.8"/>
      </g>
     </g>
     <g id="text_24">
      <!-- 0.0 -->
      <g transform="translate(281.278125 106.107064)scale(0.1 -0.1)">
       <use xlink:href="#DejaVuSans-30"/>
       <use xlink:href="#DejaVuSans-2e" x="63.623047"/>
       <use xlink:href="#DejaVuSans-30" x="95.410156"/>
      </g>
     </g>
    </g>
    <g id="ytick_9">
     <g id="line2d_29">
      <g>
       <use xlink:href="#mae48663985" x="304.18125" y="66.710288" style="stroke: #000000; stroke-width: 0.8"/>
      </g>
     </g>
     <g id="text_25">
      <!-- 0.2 -->
      <g transform="translate(281.278125 70.509507)scale(0.1 -0.1)">
       <use xlink:href="#DejaVuSans-30"/>
       <use xlink:href="#DejaVuSans-2e" x="63.623047"/>
       <use xlink:href="#DejaVuSans-32" x="95.410156"/>
      </g>
     </g>
    </g>
    <g id="ytick_10">
     <g id="line2d_30">
      <g>
       <use xlink:href="#mae48663985" x="304.18125" y="31.112731" style="stroke: #000000; stroke-width: 0.8"/>
      </g>
     </g>
     <g id="text_26">
      <!-- 0.4 -->
      <g transform="translate(281.278125 34.91195)scale(0.1 -0.1)">
       <use xlink:href="#DejaVuSans-30"/>
       <use xlink:href="#DejaVuSans-2e" x="63.623047"/>
       <use xlink:href="#DejaVuSans-34" x="95.410156"/>
      </g>
     </g>
    </g>
    <g id="text_27">
     <!-- MLP (&#197;) -->
     <g transform="translate(266.81875 136.822656)rotate(-90)scale(0.1 -0.1)">
      <use xlink:href="#DejaVuSans-4d"/>
      <use xlink:href="#DejaVuSans-4c" x="86.279297"/>
      <use xlink:href="#DejaVuSans-50" x="141.992188"/>
      <use xlink:href="#DejaVuSans-20" x="202.294922"/>
      <use xlink:href="#DejaVuSans-28" x="234.082031"/>
      <use xlink:href="#DejaVuSans-c5" x="273.095703"/>
      <use xlink:href="#DejaVuSans-29" x="341.503906"/>
     </g>
    </g>
   </g>
   <g id="line2d_31">
    <path d="M 312.773011 63.121356  L 314.508721 63.608973  L 316.24443 64.027929  L 317.98014 64.448115  L 319.715849 65.038686  L 321.451558 65.666038  L 323.187268 66.286494  L 324.922977 66.889854  L 326.658686 67.493187  L 328.394395 68.096537  L 330.130104 68.699902  L 331.865813 69.30323  L 333.601524 70.142298  L 335.337233 71.1411  L 337.072943 72.064785  L 338.808652 73.072731  L 340.544361 73.986258  L 342.28007 75.039737  L 344.015779 76.125129  L 345.751488 77.054579  L 347.487197 77.878315  L 349.222906 78.7418  L 350.958615 79.605298  L 352.694324 80.46877  L 354.430037 81.33226  L 356.165746 82.197355  L 357.901456 82.978292  L 359.637165 83.72493  L 361.372874 85.185531  L 363.108583 86.727813  L 364.844292 88.246517  L 366.580001 88.988312  L 368.31571 89.730102  L 370.051419 90.726875  L 371.787128 91.796594  L 373.522837 92.866318  L 375.258546 93.93604  L 376.994255 95.005757  L 378.729964 96.075484  L 380.465674 97.145205  L 382.201383 98.214919  L 383.937096 99.284646  L 385.672801 100.354371  L 387.408514 101.334904  L 389.144219 101.854033  L 390.879932 102.286601  L 392.615637 102.289391  L 394.35135 102.292182  L 396.087063 102.294813  L 397.822768 102.297347  L 399.558482 102.299886  L 401.294187 102.302421  L 403.0299 102.304957  L 404.765613 102.307492  L 406.501318 102.310027  L 408.237031 102.403869  L 409.972736 102.57413  L 411.708449 103.123576  L 413.444154 104.156979  L 415.179867 105.190386  L 416.915572 106.206271  L 418.651286 107.22008  L 420.386991 108.285028  L 422.122704 109.352827  L 423.858409 110.420619  L 425.594122 111.488423  L 427.329827 112.556218  L 429.06554 113.850672  L 430.801253 115.290308  L 432.536958 116.803795  L 434.272671 118.331018  L 436.008376 119.85825  L 437.744089 121.385485  L 439.479794 122.931468  L 441.215508 124.437231  L 442.951213 125.864237  L 444.686926 127.288773  L 446.422631 128.713315  L 448.158344 130.137188  L 449.894049 131.542279  L 451.629754 133.148787  L 453.365467 134.907536  L 455.10118 136.686486  L 456.836893 138.591531  L 458.572607 140.501738  L 460.308303 142.411942  L 462.044017 144.322167  L 463.77973 146.232376  L 465.515443 148.142601  L 467.25114 150.052813  L 468.986853 151.963019  L 470.722566 153.873247  L 472.458279 155.783459  L 474.193976 157.69367  L 475.929689 159.603893  L 477.665402 161.41924  L 479.401116 162.828749  L 481.136812 164.238247  L 482.872525 165.647719  L 484.608239 166.883311  " clip-path="url(#p4acd2d6c2e)" style="fill: none; stroke: #1f77b4; stroke-width: 1.5; stroke-linecap: square"/>
   </g>
   <g id="line2d_32">
    <path d="M 312.773011 73.752247  L 314.508721 74.104064  L 316.24443 74.407946  L 317.98014 74.4744  L 319.715849 74.227366  L 321.451558 73.905503  L 323.187268 73.583613  L 324.922977 73.261739  L 326.658686 72.74847  L 328.394395 72.217033  L 330.130104 71.642964  L 331.865813 71.074858  L 333.601524 71.299109  L 335.337233 71.630594  L 337.072943 71.747499  L 338.808652 71.665338  L 340.544361 71.543851  L 342.28007 71.422395  L 344.015779 71.300902  L 345.751488 71.206769  L 347.487197 71.180697  L 349.222906 71.682403  L 350.958615 73.174635  L 352.694324 74.666909  L 354.430037 76.119214  L 356.165746 77.520406  L 357.901456 79.224693  L 359.637165 80.94003  L 361.372874 82.65541  L 363.108583 84.40774  L 364.844292 86.334639  L 366.580001 88.280418  L 368.31571 90.175851  L 370.051419 91.972818  L 371.787128 93.803824  L 373.522837 95.773602  L 375.258546 97.600261  L 376.994255 99.394433  L 378.729964 101.188615  L 380.465674 102.978523  L 382.201383 104.766591  L 383.937096 106.581561  L 385.672801 108.397481  L 387.408514 110.213393  L 389.144219 111.849197  L 390.879932 113.408166  L 392.615637 114.090879  L 394.35135 114.581562  L 396.087063 115.590749  L 397.822768 116.612511  L 399.558482 117.626346  L 401.294187 118.804683  L 403.0299 120.063198  L 404.765613 121.321713  L 406.501318 122.548168  L 408.237031 123.949022  L 409.972736 125.315635  L 411.708449 126.675685  L 413.444154 128.035735  L 415.179867 129.395807  L 416.915572 130.780958  L 418.651286 132.168904  L 420.386991 133.221243  L 422.122704 133.963359  L 423.858409 134.719904  L 425.594122 135.524456  L 427.329827 136.329003  L 429.06554 137.133564  L 430.801253 137.938108  L 432.536958 138.74266  L 434.272671 139.554193  L 436.008376 140.36944  L 437.744089 141.184696  L 439.479794 141.987432  L 441.215508 142.781113  L 442.951213 143.57482  L 444.686926 144.368504  L 446.422631 145.162203  L 448.158344 145.955908  L 449.894049 146.749607  L 451.629754 147.543288  L 453.365467 148.337226  L 455.10118 149.173685  L 456.836893 150.010414  L 458.572607 150.844618  L 460.308303 151.626409  L 462.044017 152.380363  L 463.77973 153.134284  L 465.515443 153.888237  L 467.25114 154.642153  L 468.986853 155.362052  L 470.722566 156.075495  L 472.458279 156.788922  L 474.193976 157.502355  L 475.929689 158.204478  L 477.665402 158.895945  L 479.401116 159.587433  L 481.136812 160.278842  L 482.872525 160.970351  L 484.608239 161.661775  " clip-path="url(#p4acd2d6c2e)" style="fill: none; stroke-dasharray: 5.55,2.4; stroke-dashoffset: 0; stroke: #ff7f0e; stroke-width: 1.5"/>
   </g>
   <g id="line2d_33">
    <path d="M 312.773011 93.644637  L 314.508721 93.39423  L 316.24443 93.143802  L 317.98014 92.893413  L 319.715849 92.628231  L 321.451558 92.349877  L 323.187268 92.185874  L 324.922977 92.296318  L 326.658686 92.936533  L 328.394395 93.608127  L 330.130104 94.029656  L 331.865813 94.407388  L 333.601524 94.77353  L 335.337233 95.1381  L 337.072943 95.601613  L 338.808652 96.067487  L 340.544361 96.533374  L 342.28007 97.081661  L 344.015779 97.788847  L 345.751488 98.495989  L 347.487197 99.203146  L 349.222906 99.94308  L 350.958615 100.825504  L 352.694324 101.647422  L 354.430037 102.427611  L 356.165746 103.207845  L 357.901456 104.088097  L 359.637165 105.031842  L 361.372874 105.97561  L 363.108583 106.919355  L 364.844292 107.863124  L 366.580001 108.80688  L 368.31571 109.750659  L 370.051419 110.6944  L 371.787128 111.638163  L 373.522837 112.588487  L 375.258546 113.331783  L 376.994255 114.075056  L 378.729964 114.818336  L 380.465674 115.579786  L 382.201383 116.411845  L 383.937096 117.323945  L 385.672801 118.236017  L 387.408514 119.14813  L 389.144219 120.053238  L 390.879932 120.939871  L 392.615637 121.851786  L 394.35135 122.693099  L 396.087063 123.453549  L 397.822768 124.21402  L 399.558482 124.974477  L 401.294187 125.734925  L 403.0299 126.49805  L 404.765613 127.30719  L 406.501318 128.116352  L 408.237031 128.925485  L 409.972736 129.734634  L 411.708449 130.543796  L 413.444154 131.35295  L 415.179867 132.162098  L 416.915572 132.971239  L 418.651286 133.746495  L 420.386991 134.506416  L 422.122704 135.266336  L 423.858409 136.057211  L 425.594122 136.974661  L 427.329827 137.956003  L 429.06554 138.937387  L 430.801253 139.918752  L 432.536958 140.900107  L 434.272671 141.881473  L 436.008376 142.862775  L 437.744089 143.844154  L 439.479794 144.82549  L 441.215508 145.808694  L 442.951213 146.817576  L 444.686926 147.826578  L 446.422631 148.835537  L 448.158344 149.782424  L 449.894049 150.706915  L 451.629754 151.631406  L 453.365467 152.555945  L 455.10118 153.48041  L 456.836893 154.40496  L 458.572607 155.329414  L 460.308303 156.253884  L 462.044017 157.178433  L 463.77973 158.102877  L 465.515443 159.072668  L 467.25114 160.132789  L 468.986853 161.175978  L 470.722566 162.107497  L 472.458279 163.039044  L 474.193976 163.972621  L 475.929689 164.908517  L 477.665402 165.844397  L 479.401116 166.780298  L 481.136812 167.716194  L 482.872525 168.652122  L 484.608239 169.588039  " clip-path="url(#p4acd2d6c2e)" style="fill: none; stroke-dasharray: 1.5,2.475; stroke-dashoffset: 0; stroke: #2ca02c; stroke-width: 1.5"/>
   </g>
   <g id="line2d_34">
    <path d="M 312.773011 99.474973  L 314.508721 100.300271  L 316.24443 101.125611  L 317.98014 101.950819  L 319.715849 102.776114  L 321.451558 103.601418  L 323.187268 104.426644  L 324.922977 105.251974  L 326.658686 106.11694  L 328.394395 107.083742  L 330.130104 108.143727  L 331.865813 109.246914  L 333.601524 110.350078  L 335.337233 111.453295  L 337.072943 112.556449  L 338.808652 113.659553  L 340.544361 114.762747  L 342.28007 115.865976  L 344.015779 116.969055  L 345.751488 118.084392  L 347.487197 119.200493  L 349.222906 120.442756  L 350.958615 121.708611  L 352.694324 122.974556  L 354.430037 124.082308  L 356.165746 125.124097  L 357.901456 126.165938  L 359.637165 127.207777  L 361.372874 128.248088  L 363.108583 129.278112  L 364.844292 130.308108  L 366.580001 131.458872  L 368.31571 132.656513  L 370.051419 133.661921  L 371.787128 134.660168  L 373.522837 135.658407  L 375.258546 136.65654  L 376.994255 137.654835  L 378.729964 138.652967  L 380.465674 139.593086  L 382.201383 140.530599  L 383.937096 141.46824  L 385.672801 142.405778  L 387.408514 143.343358  L 389.144219 144.280964  L 390.879932 145.054499  L 392.615637 145.820671  L 394.35135 146.586986  L 396.087063 147.353251  L 397.822768 148.119553  L 399.558482 148.885797  L 401.294187 149.65203  L 403.0299 150.418289  L 404.765613 151.184602  L 406.501318 151.950877  L 408.237031 152.717137  L 409.972736 153.48337  L 411.708449 154.249651  L 413.444154 155.133292  L 415.179867 156.021857  L 416.915572 156.910606  L 418.651286 157.799218  L 420.386991 158.687799  L 422.122704 159.576501  L 423.858409 160.465054  L 425.594122 161.35373  L 427.329827 162.242427  L 429.06554 163.131028  L 430.801253 164.019683  L 432.536958 164.9083  L 434.272671 165.796965  L 436.008376 166.685625  L 437.744089 167.574173  L 439.479794 168.462795  L 441.215508 169.673037  L 442.951213 170.917079  L 444.686926 172.161217  L 446.422631 173.44535  L 448.158344 174.730151  L 449.894049 176.015026  L 451.629754 177.304581  L 453.365467 178.61322  L 455.10118 179.921637  L 456.836893 181.230128  L 458.572607 182.508298  L 460.308303 183.727972  L 462.044017 184.947762  L 463.77973 186.167424  L 465.515443 187.387236  L 467.25114 188.606972  L 468.986853 189.826635  L 470.722566 190.870243  L 472.458279 191.865962  L 474.193976 192.861703  L 475.929689 193.837711  L 477.665402 194.793615  L 479.401116 195.749509  L 481.136812 196.705339  L 482.872525 197.661201  L 484.608239 198.617052  " clip-path="url(#p4acd2d6c2e)" style="fill: none; stroke-dasharray: 9.6,2.4,1.5,2.4; stroke-dashoffset: 0; stroke: #d62728; stroke-width: 1.5"/>
   </g>
   <g id="patch_8">
    <path d="M 304.18125 208.79375  L 304.18125 26.8  " style="fill: none; stroke: #000000; stroke-width: 0.8; stroke-linejoin: miter; stroke-linecap: square"/>
   </g>
   <g id="patch_9">
    <path d="M 493.2 208.79375  L 493.2 26.8  " style="fill: none; stroke: #000000; stroke-width: 0.8; stroke-linejoin: miter; stroke-linecap: square"/>
   </g>
   <g id="patch_10">
    <path d="M 304.18125 208.79375  L 493.2 208.79375  " style="fill: none; stroke: #000000; stroke-width: 0.8; stroke-linejoin: miter; stroke-linecap: square"/>
   </g>
   <g id="patch_11">
    <path d="M 304.18125 26.8  L 493.2 26.8  " style="fill: none; stroke: #000000; stroke-width: 0.8; stroke-linejoin: miter; stroke-linecap: square"/>
   </g>
   <g id="text_28">
    <!-- PIDM[GEOM-drugs] -->
    <g transform="translate(341.30625 20.8)scale(0.12 -0.12)">
     <defs>
      <path id="DejaVuSans-47" d="M 3809 666  L 3809 1919  L 2778 1919  L 2778 2438  L 4434 2438  L 4434 434  Q 4069 175 3628 42  Q 3188 -91 2688 -91  Q 1594 -91 976 548  Q 359 1188 359 2328  Q 359 3472 976 4111  Q 1594 4750 2688 4750  Q 3144 4750 3555 4637  Q 3966 4525 4313 4306  L 4313 3634  Q 3963 3931 3569 4081  Q 3175 4231 2741 4231  Q 1884 4231 1454 3753  Q 1025 3275 1025 2328  Q 1025 1384 1454 906  Q 1884 428 2741 428  Q 3075 428 3337 486  Q 3600 544 3809 666  z " transform="scale(0.015625)"/>
      <path id="DejaVuSans-45" d="M 628 4666  L 3578 4666  L 3578 4134  L 1259 4134  L 1259 2753  L 3481 2753  L 3481 2222  L 1259 2222  L 1259 531  L 3634 531  L 3634 0  L 628 0  L 628 4666  z " transform="scale(0.015625)"/>
      <path id="DejaVuSans-2d" d="M 313 2009  L 1997 2009  L 1997 1497  L 313 1497  L 313 2009  z " transform="scale(0.015625)"/>
     </defs>
     <use xlink:href="#DejaVuSans-50"/>
     <use xlink:href="#DejaVuSans-49" x="60.302734"/>
     <use xlink:href="#DejaVuSans-44" x="89.794922"/>
     <use xlink:href="#DejaVuSans-4d" x="166.796875"/>
     <use xlink:href="#DejaVuSans-5b" x="253.076172"/>
     <use xlink:href="#DejaVuSans-47" x="292.089844"/>
     <use xlink:href="#DejaVuSans-45" x="369.580078"/>
     <use xlink:href="#DejaVuSans-4f" x="432.763672"/>
     <use xlink:href="#DejaVuSans-4d" x="511.474609"/>
     <use xlink:href="#DejaVuSans-2d" x="597.753906"/>
     <use xlink:href="#DejaVuSans-64" x="633.837891"/>
     <use xlink:href="#DejaVuSans-72" x="697.314453"/>
     <use xlink:href="#DejaVuSans-75" x="738.427734"/>
     <use xlink:href="#DejaVuSans-67" x="801.806641"/>
     <use xlink:href="#DejaVuSans-73" x="865.283203"/>
     <use xlink:href="#DejaVuSans-5d" x="917.382812"/>
    </g>
   </g>
   <g id="legend_1">
    <g id="patch_12">
     <path d="M 403.7 93.5125  L 486.2 93.5125  Q 488.2 93.5125 488.2 91.5125  L 488.2 33.8  Q 488.2 31.8 486.2 31.8  L 403.7 31.8  Q 401.7 31.8 401.7 33.8  L 401.7 91.5125  Q 401.7 93.5125 403.7 93.5125  z " style="fill: #ffffff; opacity: 0.8; stroke: #cccccc; stroke-linejoin: miter"/>
    </g>
    <g id="line2d_35">
     <path d="M 405.7 39.898437  L 415.7 39.898437  L 425.7 39.898437  " style="fill: none; stroke: #1f77b4; stroke-width: 1.5; stroke-linecap: square"/>
    </g>
    <g id="text_29">
     <!-- $\sigma = 0.00\;\AA$ -->
     <g transform="translate(433.7 43.398437)scale(0.1 -0.1)">
      <defs>
       <path id="DejaVuSans-Oblique-3c3" d="M 2219 3044  Q 1744 3044 1422 2700  Q 1081 2341 969 1747  Q 844 1119 1044 756  Q 1241 397 1706 397  Q 2166 397 2503 759  Q 2844 1122 2966 1747  Q 3075 2319 2881 2700  Q 2700 3044 2219 3044  z M 2309 3503  L 4219 3500  L 4106 2925  L 3463 2925  Q 3706 2438 3575 1747  Q 3406 888 2884 400  Q 2359 -91 1609 -91  Q 856 -91 525 400  Q 194 888 363 1747  Q 528 2609 1050 3097  Q 1484 3503 2309 3503  z " transform="scale(0.015625)"/>
       <path id="DejaVuSans-3d" d="M 678 2906  L 4684 2906  L 4684 2381  L 678 2381  L 678 2906  z M 678 1631  L 4684 1631  L 4684 1100  L 678 1100  L 678 1631  z " transform="scale(0.015625)"/>
       <path id="DejaVuSans-Oblique-c5" d="M 3188 5081  Q 3188 5278 3048 5417  Q 2909 5556 2713 5556  Q 2513 5556 2377 5420  Q 2241 5284 2241 5081  Q 2241 4884 2377 4746  Q 2513 4609 2713 4609  Q 2909 4609 3048 4746  Q 3188 4884 3188 5081  z M 2203 4397  Q 2034 4513 1945 4689  Q 1856 4866 1856 5081  Q 1856 5438 2106 5689  Q 2356 5941 2713 5941  Q 3069 5941 3320 5689  Q 3572 5438 3572 5081  Q 3572 4834 3458 4643  Q 3344 4453 3128 4341  L 3938 0  L 3278 0  L 3084 1197  L 984 1197  L 325 0  L -341 0  L 2203 4397  z M 2584 4044  L 1275 1722  L 2988 1722  L 2584 4044  z " transform="scale(0.015625)"/>
      </defs>
      <use xlink:href="#DejaVuSans-Oblique-3c3" transform="translate(0 0.171875)"/>
      <use xlink:href="#DejaVuSans-3d" transform="translate(82.861328 0.171875)"/>
      <use xlink:href="#DejaVuSans-30" transform="translate(186.132812 0.171875)"/>
      <use xlink:href="#DejaVuSans-2e" transform="translate(249.755859 0.171875)"/>
      <use xlink:href="#DejaVuSans-30" transform="translate(281.542969 0.171875)"/>
      <use xlink:href="#DejaVuSans-30" transform="translate(345.166016 0.171875)"/>
      <use xlink:href="#DejaVuSans-Oblique-c5" transform="translate(435.848198 0.171875)"/>
     </g>
    </g>
    <g id="line2d_36">
     <path d="M 405.7 54.576562  L 415.7 54.576562  L 425.7 54.576562  " style="fill: none; stroke-dasharray: 5.55,2.4; stroke-dashoffset: 0; stroke: #ff7f0e; stroke-width: 1.5"/>
    </g>
    <g id="text_30">
     <!-- $\sigma = 0.05\;\AA$ -->
     <g transform="translate(433.7 58.076562)scale(0.1 -0.1)">
      <use xlink:href="#DejaVuSans-Oblique-3c3" transform="translate(0 0.171875)"/>
      <use xlink:href="#DejaVuSans-3d" transform="translate(82.861328 0.171875)"/>
      <use xlink:href="#DejaVuSans-30" transform="translate(186.132812 0.171875)"/>
      <use xlink:href="#DejaVuSans-2e" transform="translate(249.755859 0.171875)"/>
      <use xlink:href="#DejaVuSans-30" transform="translate(281.542969 0.171875)"/>
      <use xlink:href="#DejaVuSans-35" transform="translate(345.166016 0.171875)"/>
      <use xlink:href="#DejaVuSans-Oblique-c5" transform="translate(435.848198 0.171875)"/>
     </g>
    </g>
    <g id="line2d_37">
     <path d="M 405.7 69.254687  L 415.7 69.254687  L 425.7 69.254687  " style="fill: none; stroke-dasharray: 1.5,2.475; stroke-dashoffset: 0; stroke: #2ca02c; stroke-width: 1.5"/>
    </g>
    <g id="text_31">
     <!-- $\sigma = 1.00\;\AA$ -->
     <g transform="translate(433.7 72.754687)scale(0.1 -0.1)">
      <use xlink:href="#DejaVuSans-Oblique-3c3" transform="translate(0 0.171875)"/>
      <use xlink:href="#DejaVuSans-3d" transform="translate(82.861328 0.171875)"/>
      <use xlink:href="#DejaVuSans-31" transform="translate(186.132812 0.171875)"/>
      <use xlink:href="#DejaVuSans-2e" transform="translate(249.755859 0.171875)"/>
      <use xlink:href="#DejaVuSans-30" transform="translate(281.542969 0.171875)"/>
      <use xlink:href="#DejaVuSans-30" transform="translate(345.166016 0.171875)"/>
      <use xlink:href="#DejaVuSans-Oblique-c5" transform="translate(435.848198 0.171875)"/>
     </g>
    </g>
    <g id="line2d_38">
     <path d="M 405.7 83.932812  L 415.7 83.932812  L 425.7 83.932812  " style="fill: none; stroke-dasharray: 9.6,2.4,1.5,2.4; stroke-dashoffset: 0; stroke: #d62728; stroke-width: 1.5"/>
    </g>
    <g id="text_32">
     <!-- $\sigma = 4.00\;\AA$ -->
     <g transform="translate(433.7 87.432812)scale(0.1 -0.1)">
      <use xlink:href="#DejaVuSans-Oblique-3c3" transform="translate(0 0.171875)"/>
      <use xlink:href="#DejaVuSans-3d" transform="translate(82.861328 0.171875)"/>
      <use xlink:href="#DejaVuSans-34" transform="translate(186.132812 0.171875)"/>
      <use xlink:href="#DejaVuSans-2e" transform="translate(249.755859 0.171875)"/>
      <use xlink:href="#DejaVuSans-30" transform="translate(281.542969 0.171875)"/>
      <use xlink:href="#DejaVuSans-30" transform="translate(345.166016 0.171875)"/>
      <use xlink:href="#DejaVuSans-Oblique-c5" transform="translate(435.848198 0.171875)"/>
     </g>
    </g>
   </g>
  </g>
 </g>
 <defs>
  <clipPath id="pc764d74b4b">
   <rect x="57.58125" y="26.8" width="189.01875" height="181.99375"/>
  </clipPath>
  <clipPath id="p4acd2d6c2e">
   <rect x="304.18125" y="26.8" width="189.01875" height="181.99375"/>
  </clipPath>
 </defs>
</g>
  </g>
</svg>
